HIERARCHY
ROOT Hips
{
	OFFSET 0.000000 35.082581 0.000000
	CHANNELS 6 Xposition Yposition Zposition Xrotation Yrotation Zrotation 
	JOINT Spine
	{
		OFFSET 0.000000 6.876099 0.125700
		CHANNELS 3 Xrotation Yrotation Zrotation
		JOINT Spine1
		{
			OFFSET 0.000000 5.730043 0.104720
			CHANNELS 3 Xrotation Yrotation Zrotation
			JOINT Spine1_split
			{
				OFFSET 0.000000 5.730043 0.104720
				CHANNELS 3 Xrotation Yrotation Zrotation
				JOINT Spine2
				{
					OFFSET 0.000000 5.730043 0.104720
					CHANNELS 3 Xrotation Yrotation Zrotation
					JOINT Neck
					{
						OFFSET 0.000000 10.314075 0.188496
						CHANNELS 3 Xrotation Yrotation Zrotation
						JOINT Head
						{
							OFFSET 0.000000 7.643700 -2.377400
							CHANNELS 3 Xrotation Yrotation Zrotation
							JOINT HeadTop_End
							{
								OFFSET 0.000000 43.788605 -13.619600
								CHANNELS 3 Xrotation Yrotation Zrotation
								End Site
								{
									OFFSET 0.000000 0.000000 0.000000
								}
							}
						}
					}
					JOINT LeftShoulder
					{
						OFFSET 2.196100 4.412489 0.087492
						CHANNELS 3 Xrotation Yrotation Zrotation
						JOINT LeftShoulder_split
						{
							OFFSET 2.196100 4.412489 0.087492
							CHANNELS 3 Xrotation Yrotation Zrotation
							JOINT LeftArm
							{
								OFFSET 8.771219 -2.981674 -0.026999
								CHANNELS 3 Xrotation Yrotation Zrotation
								JOINT LeftForeArm
								{
									OFFSET 8.512804 0.000000 -0.000000
									CHANNELS 3 Xrotation Yrotation Zrotation
									JOINT LeftHand
									{
										OFFSET 18.484802 0.000000 -0.000000
										CHANNELS 3 Xrotation Yrotation Zrotation
										JOINT LeftHandThumb1
										{
											OFFSET 2.499420 -1.158070 2.653252
											CHANNELS 3 Xrotation Yrotation Zrotation
											JOINT LeftHandThumb2
											{
												OFFSET 2.370079 -1.368366 1.368366
												CHANNELS 3 Xrotation Yrotation Zrotation
												JOINT LeftHandThumb3
												{
													OFFSET 2.676727 -1.545410 1.545409
													CHANNELS 3 Xrotation Yrotation Zrotation
													JOINT LeftHandThumb4
													{
														OFFSET 1.692226 -0.977005 0.977007
														CHANNELS 3 Xrotation Yrotation Zrotation
														End Site
														{
															OFFSET 0.000000 0.000000 0.000000
														}
													}
												}
											}
										}
										JOINT LeftHandIndex1
										{
											OFFSET 7.924831 -0.457527 2.345128
											CHANNELS 3 Xrotation Yrotation Zrotation
											JOINT LeftHandIndex2
											{
												OFFSET 3.643303 0.000000 0.000000
												CHANNELS 3 Xrotation Yrotation Zrotation
												JOINT LeftHandIndex3
												{
													OFFSET 3.810799 0.000000 0.000000
													CHANNELS 3 Xrotation Yrotation Zrotation
													JOINT LeftHandIndex4
													{
														OFFSET 2.403702 0.000000 0.000000
														CHANNELS 3 Xrotation Yrotation Zrotation
														End Site
														{
															OFFSET 0.000000 0.000000 0.000000
														}
													}
												}
											}
										}
										JOINT LeftHandMiddle1
										{
											OFFSET 8.563995 0.000000 -0.000000
											CHANNELS 3 Xrotation Yrotation Zrotation
											JOINT LeftHandMiddle2
											{
												OFFSET 3.861618 0.000000 0.000000
												CHANNELS 3 Xrotation Yrotation Zrotation
												JOINT LeftHandMiddle3
												{
													OFFSET 3.701603 0.000000 0.000000
													CHANNELS 3 Xrotation Yrotation Zrotation
													JOINT LeftHandMiddle4
													{
														OFFSET 2.322544 0.000000 0.000000
														CHANNELS 3 Xrotation Yrotation Zrotation
														End Site
														{
															OFFSET 0.000000 0.000000 0.000000
														}
													}
												}
											}
										}
										JOINT LeftHandRing1
										{
											OFFSET 8.426460 -0.424637 -3.286992
											CHANNELS 3 Xrotation Yrotation Zrotation
											JOINT LeftHandRing2
											{
												OFFSET 3.126408 0.000000 0.000000
												CHANNELS 3 Xrotation Yrotation Zrotation
												JOINT LeftHandRing3
												{
													OFFSET 3.085026 0.000000 0.000000
													CHANNELS 3 Xrotation Yrotation Zrotation
													JOINT LeftHandRing4
													{
														OFFSET 1.644005 0.000000 0.000000
														CHANNELS 3 Xrotation Yrotation Zrotation
														End Site
														{
															OFFSET 0.000000 0.000000 0.000000
														}
													}
												}
											}
										}
									}
								}
							}
						}
					}
					JOINT RightShoulder
					{
						OFFSET -2.196100 4.412496 0.070690
						CHANNELS 3 Xrotation Yrotation Zrotation
						JOINT RightShoulder_split
						{
							OFFSET -2.196100 4.412496 0.070690
							CHANNELS 3 Xrotation Yrotation Zrotation
							JOINT RightArm
							{
								OFFSET -8.771282 -2.981682 -0.094208
								CHANNELS 3 Xrotation Yrotation Zrotation
								JOINT RightForeArm
								{
									OFFSET -8.494598 0.000000 0.000000
									CHANNELS 3 Xrotation Yrotation Zrotation
									JOINT RightHand
									{
										OFFSET -18.483803 0.000000 0.000001
										CHANNELS 3 Xrotation Yrotation Zrotation
										JOINT RightHandThumb1
										{
											OFFSET -2.527351 -1.008072 2.575253
											CHANNELS 3 Xrotation Yrotation Zrotation
											JOINT RightHandThumb2
											{
												OFFSET -2.321518 -1.340328 1.340329
												CHANNELS 3 Xrotation Yrotation Zrotation
												JOINT RightHandThumb3
												{
													OFFSET -2.657753 -1.534454 1.534455
													CHANNELS 3 Xrotation Yrotation Zrotation
													JOINT RightHandThumb4
													{
														OFFSET -1.807510 -1.043568 1.043567
														CHANNELS 3 Xrotation Yrotation Zrotation
														End Site
														{
															OFFSET 0.000000 0.000000 0.000000
														}
													}
												}
											}
										}
										JOINT RightHandIndex1
										{
											OFFSET -8.811420 0.015533 2.887987
											CHANNELS 3 Xrotation Yrotation Zrotation
											JOINT RightHandIndex2
											{
												OFFSET -3.537502 0.000000 0.000000
												CHANNELS 3 Xrotation Yrotation Zrotation
												JOINT RightHandIndex3
												{
													OFFSET -3.356201 0.000000 0.000000
													CHANNELS 3 Xrotation Yrotation Zrotation
													JOINT RightHandIndex4
													{
														OFFSET -1.933098 0.000000 0.000000
														CHANNELS 3 Xrotation Yrotation Zrotation
														End Site
														{
															OFFSET 0.000000 0.000000 0.000000
														}
													}
												}
											}
										}
										JOINT RightHandMiddle1
										{
											OFFSET -8.178135 0.000000 0.000000
											CHANNELS 3 Xrotation Yrotation Zrotation
											JOINT RightHandMiddle2
											{
												OFFSET -3.901302 0.000000 0.000000
												CHANNELS 3 Xrotation Yrotation Zrotation
												JOINT RightHandMiddle3
												{
													OFFSET -3.909599 0.000000 0.000000
													CHANNELS 3 Xrotation Yrotation Zrotation
													JOINT RightHandMiddle4
													{
														OFFSET -2.376003 0.000000 0.000000
														CHANNELS 3 Xrotation Yrotation Zrotation
														End Site
														{
															OFFSET 0.000000 0.000000 0.000000
														}
													}
												}
											}
										}
										JOINT RightHandRing1
										{
											OFFSET -7.559013 0.014137 -2.865403
											CHANNELS 3 Xrotation Yrotation Zrotation
											JOINT RightHandRing2
											{
												OFFSET -3.449306 0.000000 0.000000
												CHANNELS 3 Xrotation Yrotation Zrotation
												JOINT RightHandRing3
												{
													OFFSET -3.362106 0.000000 0.000000
													CHANNELS 3 Xrotation Yrotation Zrotation
													JOINT RightHandRing4
													{
														OFFSET -2.076401 0.000000 0.000000
														CHANNELS 3 Xrotation Yrotation Zrotation
														End Site
														{
															OFFSET 0.000000 0.000000 0.000000
														}
													}
												}
											}
										}
									}
								}
							}
						}
					}
				}
			}
		}
	}
	JOINT LeftUpLeg
	{
		OFFSET 10.205400 -3.823500 0.155100
		CHANNELS 3 Xrotation Yrotation Zrotation
		JOINT LeftLeg
		{
			OFFSET 0.708757 -12.982077 0.567790
			CHANNELS 3 Xrotation Yrotation Zrotation
			JOINT LeftFoot
			{
				OFFSET -0.708756 -10.717838 -2.184338
				CHANNELS 3 Xrotation Yrotation Zrotation
				JOINT LeftToeBase
				{
					OFFSET 0.108149 -7.191104 7.560241
					CHANNELS 3 Xrotation Yrotation Zrotation
					JOINT LeftToe_End
					{
						OFFSET 0.070230 0.081724 4.490308
						CHANNELS 3 Xrotation Yrotation Zrotation
						End Site
						{
							OFFSET 0.000000 0.000000 0.000000
						}
					}
				}
			}
		}
	}
	JOINT RightUpLeg
	{
		OFFSET -10.205400 -3.823500 0.005500
		CHANNELS 3 Xrotation Yrotation Zrotation
		JOINT RightLeg
		{
			OFFSET -0.708756 -12.982134 0.610632
			CHANNELS 3 Xrotation Yrotation Zrotation
			JOINT RightFoot
			{
				OFFSET 0.708754 -10.717769 -1.945823
				CHANNELS 3 Xrotation Yrotation Zrotation
				JOINT RightToeBase
				{
					OFFSET -0.108140 -7.191069 7.372968
					CHANNELS 3 Xrotation Yrotation Zrotation
					JOINT RightToe_End
					{
						OFFSET -0.070227 0.081735 4.479403
						CHANNELS 3 Xrotation Yrotation Zrotation
						End Site
						{
							OFFSET 0.000000 0.000000 0.000000
						}
					}
				}
			}
		}
	}
}
MOTION
Frames: 6
Frame Time: 0.016667
22.246185 31.509861 8.912844 -10.188766 -57.673141 -11.266143 9.139397 9.010471 0.167173 2.556079 17.404594 -2.385636 0.000000 0.000000 0.000000 3.099508 13.576342 -1.746531 -0.834490 -4.108951 0.255299 1.539940 -45.055930 4.111456 0.000000 0.000001 -0.000001 -6.510695 -24.283976 -29.301498 0.000000 0.000000 0.000000 -16.491714 27.629865 -48.402771 -0.000005 -37.042349 0.000018 20.414561 12.547345 -11.679933 -0.367429 1.022212 8.846097 11.332623 25.661866 5.956431 -1.978612 11.931643 20.214305 -0.000004 -0.000003 -0.000002 -3.147026 -1.008775 -32.685433 0.795780 2.949884 -30.188876 0.772661 2.909791 -29.736178 0.000002 0.000002 -0.000001 1.080598 5.663178 -36.569984 0.703185 2.784821 -28.337849 0.746047 2.862749 -29.207494 0.000000 -0.000001 0.000000 2.638180 7.725038 -36.880457 0.871326 3.075879 -31.625886 0.916184 3.147443 -32.452076 -0.000000 0.000003 0.000000 16.094118 -29.062592 21.606098 0.000000 0.000000 0.000000 17.231247 -22.622070 41.644821 -0.000021 113.407505 -0.000021 50.459027 7.307169 26.799234 11.446987 0.444936 -2.639164 0.868431 -5.095144 -5.270577 -19.194727 12.675449 -8.491944 -0.000003 0.000001 0.000002 -1.101630 2.714075 12.099557 0.231083 -1.450246 18.106208 0.006201 -0.240489 2.953400 0.000004 0.000000 -0.000000 -0.590496 -0.253846 13.946832 0.529547 -2.158731 27.563013 0.105619 -0.987239 12.212440 -0.000000 -0.000001 0.000001 0.152623 -3.304637 16.160612 1.052588 -2.950881 39.255918 0.158912 -1.207465 14.995054 0.000001 0.000001 0.000002 -11.020787 10.209524 12.557191 50.343938 -12.370212 1.007781 -34.981353 17.468405 -0.295139 -3.379320 0.000013 0.000005 0.000000 0.000001 0.000000 -15.484290 18.234923 -19.942679 53.220363 -2.945054 -8.537733 19.327909 -3.493439 34.048746 -26.585980 -2.682230 13.360853 0.000001 -0.000000 0.000001 
22.226969 31.555172 9.451887 -10.780355 -56.903853 -11.781968 9.578383 8.091481 0.134677 2.662959 17.145935 -2.401210 0.000000 0.000000 0.000000 3.209016 13.582542 -1.840704 -0.835033 -4.107085 0.327522 1.616706 -45.330142 4.399508 -0.000000 0.000001 0.000000 -6.690981 -24.917024 -29.325755 0.000000 0.000000 0.000000 -17.150503 26.242823 -47.937758 -0.000003 -37.261394 -0.000005 18.651162 12.125973 -10.193057 -0.303189 1.156274 8.901289 11.336628 25.654614 5.977715 -1.941925 11.914818 20.241296 -0.000000 -0.000001 -0.000001 -3.164702 -0.956355 -33.003583 0.813126 2.979431 -30.524040 0.789481 2.939014 -30.065810 -0.000001 -0.000000 -0.000001 1.100497 5.692200 -36.934644 0.718685 2.813304 -28.654826 0.762345 2.891693 -29.532481 -0.000001 0.000001 -0.000000 2.669884 7.741946 -37.250971 0.890052 3.106041 -31.973212 0.935750 3.177964 -32.806987 -0.000000 0.000002 -0.000000 16.288808 -29.166718 21.993817 0.000000 0.000000 0.000000 17.892155 -24.268777 42.118730 -0.000010 113.885468 -0.000020 41.063849 5.287874 26.351232 11.448277 0.442802 -2.640237 0.869864 -5.099409 -5.271821 -19.191645 12.672140 -8.493058 -0.000000 0.000005 0.000002 -1.117752 2.690263 12.294177 0.236135 -1.465560 18.304407 0.007052 -0.256446 3.149591 -0.000003 -0.000000 0.000000 -0.596858 -0.274212 14.142335 0.537005 -2.172934 27.760242 0.109022 -1.002878 12.408879 0.000001 -0.000000 -0.000000 0.155911 -3.319391 16.357185 1.061189 -2.961386 39.422940 0.162436 -1.220551 15.161705 -0.000001 -0.000001 0.000000 -9.678663 10.354343 11.158134 50.078189 -12.549219 1.372263 -35.787295 17.434874 0.935989 -3.382261 0.000001 -0.000001 0.000000 -0.000003 -0.000000 -18.496490 20.038013 -17.289130 55.483256 -2.012945 -8.651317 21.189716 -0.233128 29.988253 -28.531848 -5.507462 16.539547 -0.000001 -0.000001 0.000000 
22.225191 31.648014 10.027078 -11.232244 -55.912028 -12.265357 9.993702 7.056931 0.277116 2.778478 16.848654 -2.408987 0.000000 0.000000 0.000000 3.327780 13.548344 -1.925067 -0.836522 -4.091354 0.390945 1.663307 -45.506600 4.655206 -0.000000 0.000002 -0.000000 -6.858152 -25.585243 -29.281219 0.000000 0.000000 0.000000 -17.849562 24.630000 -47.582042 0.000001 -37.102376 -0.000014 17.190208 11.684768 -8.623612 -0.239686 1.289006 8.955654 11.340589 25.647454 5.998801 -1.905601 11.898188 20.267982 -0.000003 -0.000003 0.000001 -3.181901 -0.904407 -33.318438 0.830446 3.008591 -30.855718 0.806290 2.967822 -30.392054 0.000000 0.000001 0.000000 1.120383 5.720794 -37.295538 0.734133 2.841405 -28.968506 0.778654 2.920264 -29.854081 0.000001 0.000000 0.000001 2.701336 7.758511 -37.617690 0.908761 3.135770 -32.316938 0.955318 3.208077 -33.158219 0.000000 0.000001 -0.000000 16.428041 -29.286154 22.283873 0.000000 0.000000 0.000000 18.343112 -25.660561 42.553048 -0.000037 114.043976 0.000025 34.092541 4.326369 26.246885 11.449725 0.440230 -2.641549 0.872416 -5.108706 -5.273689 -19.187140 12.663199 -8.495787 -0.000000 -0.000006 -0.000001 -1.093862 2.717387 12.021029 0.229006 -1.443902 18.024096 0.005872 -0.234001 2.873828 -0.000000 -0.000001 0.000000 -0.587003 -0.249515 13.867937 0.526568 -2.152983 27.483378 0.104261 -0.980958 12.133567 0.000003 0.000001 -0.000001 0.150471 -3.295862 16.081660 1.039548 -2.934851 39.001534 0.153605 -1.187481 14.741251 -0.000001 0.000000 0.000000 -8.376376 10.501542 9.891500 49.557783 -12.416908 1.699097 -36.267376 16.862185 1.986963 -3.374989 0.000007 -0.000002 0.000001 -0.000002 -0.000000 -21.539686 21.224350 -14.126492 56.906718 -1.235773 -8.334832 22.409446 3.782839 25.180204 -32.745266 -8.351807 16.152158 0.000001 0.000001 0.000000 
22.226612 31.772038 10.629717 -11.440352 -54.657629 -12.605860 10.336941 5.851380 0.555494 2.886332 16.500543 -2.402981 0.000000 0.000000 0.000000 3.439223 13.460940 -1.993052 -0.825259 -4.058136 0.451981 1.734940 -45.565210 4.903149 -0.000000 0.000001 -0.000000 -7.018247 -26.326419 -29.169303 0.000000 0.000000 0.000000 -18.434940 23.003966 -47.374032 -0.000013 -36.923279 0.000017 16.093160 11.349586 -7.118690 -0.177027 1.420182 9.009172 11.344507 25.640354 6.019601 -1.869744 11.881823 20.294384 0.000004 -0.000001 -0.000002 -3.198568 -0.852997 -33.629335 0.847738 3.037284 -31.183307 0.823041 2.996177 -30.714247 0.000002 0.000005 -0.000002 1.140219 5.748952 -37.651971 0.749578 2.869066 -29.278316 0.794921 2.948374 -30.171749 0.000001 0.000002 0.000001 2.732478 7.774691 -37.979834 0.927426 3.165038 -32.656425 0.974828 3.237674 -33.505083 0.000000 -0.000002 -0.000000 16.511899 -29.414708 22.476742 0.000000 0.000000 0.000000 18.832105 -26.862726 43.040512 -0.000028 114.021348 -0.000017 28.272817 3.883409 26.345218 11.451381 0.436221 -2.643294 0.877860 -5.126591 -5.276855 -19.179928 12.645109 -8.501226 0.000003 -0.000000 -0.000000 -1.053540 2.761309 11.566183 0.217383 -1.407685 17.556979 0.004137 -0.196631 2.414572 0.000001 0.000001 -0.000001 -0.570154 -0.209045 13.411044 0.509359 -2.119655 27.022400 0.096581 -0.944449 11.675303 -0.000000 0.000000 0.000001 0.142057 -3.257688 15.622902 1.001903 -2.887840 38.260742 0.138678 -1.129177 14.002051 0.000001 0.000000 0.000002 -7.219417 10.633936 8.839363 48.877588 -12.059053 1.922144 -36.473323 15.721074 2.877529 -3.339874 0.000027 0.000012 0.000000 -0.000000 0.000000 -25.427449 22.273428 -10.866892 60.966282 -1.668537 -8.160669 19.797189 7.402404 22.236919 -29.658553 -7.086234 14.553535 0.000000 -0.000001 0.000001 
22.218761 31.905254 11.251911 -11.357003 -53.149479 -12.728058 10.583674 4.460770 0.908664 2.977884 16.101305 -2.382549 0.000000 0.000000 0.000000 3.534445 13.319114 -2.043646 -0.797120 -4.009261 0.517362 1.875862 -45.514755 5.151915 0.000000 -0.000002 0.000000 -7.175202 -27.162817 -28.995198 0.000000 0.000000 0.000000 -18.803873 21.533251 -47.316094 0.000002 -37.046721 0.000002 15.372638 11.174112 -5.843589 -0.115342 1.549497 9.061698 11.348390 25.633362 6.040110 -1.834400 11.865723 20.320388 0.000001 -0.000000 -0.000004 -3.214724 -0.802285 -33.935720 0.864897 3.065441 -31.506170 0.839717 3.024033 -31.031797 0.000000 0.000000 -0.000000 1.159908 5.776565 -38.003261 0.764909 2.896242 -29.583639 0.811107 2.976011 -30.484801 0.000000 0.000001 -0.000001 2.763275 7.790462 -38.336766 0.945987 3.193757 -32.991006 0.994210 3.266731 -33.846965 0.000002 0.000003 -0.000001 16.548152 -29.518022 22.591580 0.000000 0.000000 0.000000 19.288171 -27.835973 43.500461 -0.000075 113.869130 0.000037 23.411643 3.720029 26.828899 11.453140 0.430341 -2.645548 0.886592 -5.151512 -5.281997 -19.170446 12.619818 -8.508754 -0.000003 0.000002 -0.000000 -0.996925 2.822256 10.932548 0.201683 -1.357082 16.906294 0.002241 -0.144555 1.774833 0.000001 -0.000002 0.000001 -0.546259 -0.152607 12.774616 0.485887 -2.072981 26.380279 0.086335 -0.893462 11.036899 0.000000 0.000000 0.000001 0.131000 -3.204939 14.983838 0.950511 -2.821530 37.228851 0.119116 -1.047642 12.972392 -0.000000 0.000002 0.000004 -6.264074 10.748919 7.986011 48.143866 -11.731729 2.018821 -36.525256 14.204854 3.745771 -3.268482 -0.000015 0.000007 0.000001 -0.000003 -0.000000 -29.164594 22.674835 -7.692499 64.107179 -2.394448 -7.761888 17.530326 11.427598 19.977506 -27.145651 -4.774086 11.331415 -0.000000 -0.000002 0.000001 
22.196417 32.035156 11.889935 -11.014778 -51.447215 -12.629414 10.739222 2.923766 1.288832 3.054877 15.663586 -2.352309 0.000000 0.000000 0.000000 3.615015 13.134262 -2.081371 -0.759838 -3.950809 0.589088 2.105246 -45.390046 5.394831 0.000001 -0.000001 -0.000000 -7.328493 -28.082434 -28.771100 0.000000 0.000000 0.000000 -18.947628 20.246124 -47.384502 0.000008 -37.580285 0.000021 14.993802 11.121512 -4.953952 -0.054762 1.676694 9.113085 11.352186 25.626511 6.060313 -1.799650 11.849940 20.346000 -0.000004 0.000001 -0.000002 -3.230374 -0.752328 -34.236945 0.881967 3.093076 -31.823675 0.856257 3.051317 -31.344056 0.000000 0.000001 -0.000001 1.179405 5.803607 -38.348712 0.780170 2.922906 -29.883898 0.827148 3.003036 -30.792637 0.000001 -0.000001 0.000000 2.793575 7.805803 -38.687759 0.964409 3.221908 -33.320023 1.013455 3.295192 -34.183164 -0.000000 0.000001 -0.000000 16.552035 -29.563033 22.660638 0.000000 0.000000 0.000000 19.613149 -28.573950 43.849692 -0.000035 113.628516 0.000006 19.161235 3.524069 27.738076 11.454860 0.423260 -2.648226 0.896943 -5.182261 -5.289094 -19.159343 12.588604 -8.518025 -0.000000 -0.000000 -0.000000 -0.926426 2.896642 10.152747 0.183151 -1.294587 16.105654 0.000714 -0.080449 0.987615 0.000000 -0.000001 0.000001 -0.516095 -0.083325 11.991452 0.457706 -2.015191 25.590188 0.074524 -0.830594 10.251393 -0.000001 0.000000 -0.000000 0.118246 -3.140043 14.197507 0.888935 -2.738691 35.959307 0.097062 -0.946840 11.705424 0.000002 0.000001 0.000001 -5.465319 10.827806 7.285214 47.364602 -11.429633 1.986221 -36.471919 12.396810 4.567415 -3.162162 0.000003 0.000002 0.000000 -0.000006 -0.000000 -32.534653 22.515970 -4.801286 66.059493 -3.366628 -7.190811 15.932355 15.455263 18.374261 -25.039940 -2.774796 7.413968 -0.000000 0.000001 0.000001 
